<svg xmlns="http://www.w3.org/2000/svg" fill="none" viewBox="0 0 136 136">
  <path d="M44.101,39.414c8.957,-15.365 19.546,-31.259 25.931,-32.555c8.667,-1.759 -2.348,16.046 -3.085,17.237c-3.924,6.343 -7.38,11.345 -10.387,15.318l-4.107,0c7.824,-10.521 18.168,-25.726 15.339,-25.47c-0.71,0.064 -8.823,11.621 -9.551,12.66c-4.537,6.677 -5.43,8.526 -7.999,12.81l-6.141,0Z"/>
  <path d="M30.417,99.955c-4.474,13.512 -11.59,25.294 -15.355,29.012c-4.125,4.073 -8.554,1.169 -5.853,-10.345c1.626,-6.933 3.573,-13.179 5.549,-18.667l6.008,0c-0.914,2.533 -2.055,5.801 -3.576,10.261c-0.325,1.062 -4.119,13.459 -3.161,13.519c0.439,0.028 7.889,-9.14 12.899,-23.78l3.489,0Z"/>
  <path d="M14.759,99.955c5.567,-15.462 11.361,-24.904 10.843,-26.712c-0.799,-2.786 -0.155,-2.91 2.37,-4.42c0.339,-0.203 7.472,-14.559 16.128,-29.409l6.141,-0c-0.882,1.471 -1.962,3.23 -3.456,5.57c-5.382,8.433 -0.689,2.977 5.667,-5.57l4.107,-0c-9.591,12.673 -14.612,14.876 -15.683,16.744c-0.442,0.772 -4.111,7.22 -5.491,10.552c0,0 8.814,-1.342 18.584,-6.253c2.84,-6.004 6.502,-13.366 10.617,-21.043l5.896,-0c-9.805,17.094 -8.515,15.491 -8.605,16.341c2.667,-2.003 9.578,-8.359 16.608,-16.341l3.858,-0c-6.678,7.723 -14.609,15.559 -22.87,22.294c-0.809,0.66 -4.043,6.907 -1.942,5.132c0.882,-0.745 7.223,-6.1 12.268,-7.602c14.339,-4.271 6.665,12.159 7.226,11.673c1.751,-1.519 2.86,-3.433 3.568,-4.363c2.252,-4.905 5.958,-9.488 9.094,-9.409c5.188,0.131 -1.595,7.707 -3.065,10.278c-10.017,17.527 10.675,-7.688 14.15,-6.853c3.645,0.875 0.458,7.578 0.39,7.773c-5.605,16.133 7.491,2.365 9.332,-0.121c2.952,-3.985 1.847,-4.359 1.592,-5.429c-1.539,-6.475 5.948,-6.962 5.392,-2.139c-0.408,3.545 -2.232,6.858 -5.921,11.393c-11.77,14.469 -18.895,6.584 -16.417,-1.457c2.788,-9.046 -12.854,17.603 -16.392,5.462c-0.263,-0.903 -0.28,-2.046 -0.098,-3.32c-1.05,1.175 -2.485,2.301 -4.415,3.163c-1.135,0.508 -4.802,6.121 -9.865,10.777l-7.129,0c2.778,-2.115 6.075,-5.778 2.629,-3.525c-0.267,0.174 -0.195,0.173 -3.22,2.351c-0.402,0.323 -1.085,0.749 -1.607,1.174l-4.384,-0c0.565,-0.735 1.298,-1.482 2.205,-2.208c9.69,-7.761 13.599,-5.02 18.703,-15.148c2.275,-4.513 3.329,-7.534 -0.03,-6.49c-13.255,4.115 -18.672,15.259 -21.665,14.87c-4.304,-0.56 -1.18,-5.466 -0.147,-7.882c0.524,-1.226 1.151,-2.647 1.87,-4.233c-12.414,5.882 -17.828,4.819 -17.584,6.524c1.252,8.767 -0.566,18.708 -3.596,27.856l-3.489,0c1.969,-5.753 3.56,-12.35 4.202,-19.566c0.334,-3.755 0.646,-3.955 0.045,-4.185c-0.763,-0.292 -0.601,0.333 -5.908,12.541c-1.523,3.505 -2.429,5.468 -4.5,11.21l-6.008,-0Z"/>
  <path d="M64.373,86.665c-2.668,2.454 -5.725,4.642 -9.002,5.678c-5.919,1.869 -7.744,-1.73 -4.709,-5.678l4.384,0c-0.559,0.456 -0.932,0.911 -0.573,1.238c0.382,0.348 1.524,-0.289 2.771,-1.238l7.129,-0Z"/>
  <path d="M64.587,39.414c2.243,-4.184 4.62,-8.461 7.073,-12.663c10.581,-18.132 20.092,-24.899 25.318,-24.1c9.634,1.472 0.887,18.812 -14.634,36.763l-3.858,0c7.962,-9.04 16.074,-20.166 18.339,-29.414c1.529,-6.241 -6.994,0.076 -14.617,10.703c-3.826,5.334 -6.325,9.458 -8.895,13.792c-1.034,1.792 -1.975,3.427 -2.831,4.92l-5.896,0Z"/>
  <path d="M95.177,37.53c-0.135,-1.991 1.042,-2.465 1.702,-3.11c0.659,-0.645 4.066,11.029 4.545,11.347c0.479,0.317 0.764,0.124 1.191,-0.262c0.427,-0.386 19.457,-24.846 19.457,-24.846c0,0 1.539,-1.294 2.335,-1.294c0.796,0 -1.164,2.839 -1.857,4.153c-0.693,1.314 -0.668,1.592 -1.203,2.773c-0.407,0.899 -11.075,20.773 -16.882,28.475c-0.617,0.772 -1.993,1.158 -4.033,0.434c-2.041,-0.723 -5.087,-15.181 -5.255,-17.669Z" style="fill:#e37639;fill-rule:nonzero;"/>
  <style>
    path { fill: #000; }
        @media (prefers-color-scheme: dark) {
            path { fill: #FFF; }
        }
  </style>
</svg>
