<svg width="128" height="128" viewBox="0 0 128 128" fill="none" xmlns="http://www.w3.org/2000/svg">
<path d="M91.3735 36.0285C91.244 34.1175 92.3741 33.6625 93.0069 33.0433C93.6398 32.4242 96.9105 43.6317 97.3707 43.936C97.8308 44.2402 98.1041 44.055 98.5141 43.6846C98.9241 43.3142 117.193 19.8324 117.193 19.8324C117.193 19.8324 118.67 18.5898 119.434 18.5898C120.199 18.5899 118.317 21.3151 117.652 22.5764C116.986 23.8378 117.01 24.1052 116.497 25.2381C116.106 26.1015 105.865 45.18 100.291 52.5745C99.6986 53.3153 98.3775 53.6857 96.4186 52.9912C94.4597 52.2966 91.5354 38.4172 91.3735 36.0285Z" fill="#E37639"/>
<g clip-path="url(#clip0_262_44964)">
<path fill-rule="evenodd" clip-rule="evenodd" d="M49.5372 62.952C37.6193 68.5986 32.4224 67.5782 32.6562 69.2147C35.6338 90.0603 20.5257 117.823 14.4637 123.808C10.5036 127.717 6.25227 124.93 8.84492 113.877C14.8046 88.4703 25.2558 72.6641 24.5819 70.3134C23.8149 67.6388 24.4332 67.5201 26.8571 66.0695C27.5202 65.6726 55.1797 9.03073 67.2341 6.58446C75.5551 4.89587 64.9805 21.9886 64.2731 23.1323C48.4887 48.6464 40.5965 51.5564 39.2458 53.9113C38.8211 54.6518 35.2994 60.8429 33.9749 64.0411C33.9749 64.0411 42.4362 62.7528 51.815 58.0386C56.0266 49.1328 62.124 37.1168 68.7976 25.681C78.9556 8.27398 88.0857 1.77818 93.103 2.5445C106.331 4.56506 83.4645 37.746 57.0988 59.2397C56.3221 59.8729 53.2171 65.8699 55.2341 64.1666C56.081 63.4514 62.1688 58.3106 67.0119 56.8679C80.7775 52.7676 73.4102 68.5409 73.9491 68.0735C75.6302 66.6158 76.6944 64.7784 77.3738 63.8853C79.5363 59.1766 83.0941 54.7764 86.1044 54.8525C91.0848 54.9786 84.5734 62.2507 83.1622 64.7198C73.5455 81.5457 93.4107 57.3394 96.7466 58.1405C100.246 58.9809 97.1867 65.4152 97.1214 65.6029C91.7411 81.0898 104.313 67.8727 106.08 65.4866C108.914 61.6602 107.853 61.3017 107.608 60.2745C106.131 54.0587 113.319 53.5914 112.785 58.2212C112.393 61.6243 110.643 64.8047 107.101 69.1588C95.802 83.049 88.9623 75.4791 91.3409 67.7596C94.0169 59.0753 79.0015 84.6589 75.6042 73.0031C75.3514 72.1359 75.3361 71.0391 75.5101 69.8161C74.5021 70.9445 73.1242 72.0247 71.2724 72.8529C69.6085 73.5973 62.2761 85.7701 53.1595 88.649C46.4198 90.7775 45.2096 85.5204 50.7556 81.0789C60.0581 73.6286 63.8108 76.2592 68.7104 66.5368C70.8938 62.2042 71.9062 59.3045 68.6812 60.3058C55.956 64.2569 50.7561 74.955 47.883 74.5815C43.7511 74.0445 46.7503 69.3345 47.7423 67.0151C48.2455 65.8384 48.8474 64.4739 49.5372 62.952ZM70.3853 33.1146C58.0279 54.5343 59.5007 52.6371 59.4068 53.5242C64.866 49.4237 88.8612 26.3172 92.956 9.60001C94.4236 3.60882 86.2418 9.67309 78.9241 19.8744C75.251 24.9949 72.8514 28.9545 70.3853 33.1146ZM54.3898 82.0714C53.5896 82.7144 51.632 83.7805 52.2974 84.3875C53.4811 85.4673 62.2742 76.6821 57.4814 79.8142C57.225 79.9817 57.2947 79.9807 54.3898 82.0714ZM16.5066 105.807C16.1946 106.827 12.5523 118.727 13.4718 118.785C14.0587 118.822 27.7059 101.731 29.8888 77.1728C30.2092 73.5686 30.509 73.3762 29.9316 73.1555C29.1988 72.8752 29.3543 73.4758 24.2601 85.1952C22.1523 90.0439 21.2774 91.82 16.5066 105.807ZM55.9147 25.5395C50.0629 34.15 50.5268 34.3965 44.9184 43.1842C33.3908 61.2464 70.0072 12.9409 65.084 13.3863C64.4023 13.448 56.6144 24.5426 55.9147 25.5395Z" fill="#0B0909"/>
</g>
<defs>
<clipPath id="clip0_262_44964">
<rect width="104.822" height="123.032" fill="white" transform="translate(8.05078 2.48438)"/>
</clipPath>
</defs>
</svg>
