<svg width="32" height="32" viewBox="0 0 32 32" fill="none" xmlns="http://www.w3.org/2000/svg">
<path d="M22.8424 9.00712C22.81 8.52938 23.0925 8.41563 23.2508 8.26083C23.409 8.10604 24.2267 10.9079 24.3417 10.984C24.4567 11.0601 24.5251 11.0137 24.6276 10.9211C24.7301 10.8285 29.2973 4.95809 29.2973 4.95809C29.2973 4.95809 29.6666 4.64745 29.8576 4.64746C30.0487 4.64747 29.5782 5.32877 29.4119 5.64411C29.2456 5.95945 29.2516 6.0263 29.1233 6.30951C29.0255 6.52538 26.4653 11.295 25.0717 13.1436C24.9237 13.3288 24.5934 13.4214 24.1037 13.2478C23.6139 13.0742 22.8829 9.60429 22.8424 9.00712Z" fill="#E37639"/>
<g clip-path="url(#clip0_262_44964)">
<path fill-rule="evenodd" clip-rule="evenodd" d="M12.3833 15.738C9.40386 17.1497 8.10462 16.8945 8.16307 17.3037C8.90748 22.5151 5.13044 29.4557 3.61496 30.9519C2.62493 31.9293 1.56209 31.2324 2.21025 28.4692C3.70017 22.1176 6.31298 18.166 6.14449 17.5783C5.95276 16.9097 6.10731 16.88 6.71331 16.5174C6.87906 16.4182 13.794 2.25768 16.8076 1.64611C18.8878 1.22397 16.2442 5.49715 16.0673 5.78308C12.1212 12.1616 10.1481 12.8891 9.81048 13.4778C9.70429 13.663 8.82387 15.2107 8.49274 16.0103C8.49274 16.0103 10.6081 15.6882 12.9528 14.5096C14.0057 12.2832 15.53 9.2792 17.1984 6.42024C19.7379 2.0685 22.0205 0.444544 23.2748 0.636124C26.5817 1.14127 20.8651 9.4365 14.2737 14.8099C14.0796 14.9682 13.3033 16.4675 13.8076 16.0416C14.0193 15.8628 15.5412 14.5776 16.752 14.217C20.1934 13.1919 18.3516 17.1352 18.4863 17.0184C18.9066 16.6539 19.1726 16.1946 19.3425 15.9713C19.8831 14.7941 20.7725 13.6941 21.5251 13.7131C22.7702 13.7446 21.1424 15.5627 20.7896 16.1799C18.3854 20.3864 23.3517 14.3348 24.1857 14.5351C25.0605 14.7452 24.2957 16.3538 24.2794 16.4007C22.9343 20.2725 26.0773 16.9682 26.519 16.3716C27.2275 15.4151 26.9622 15.3254 26.9011 15.0686C26.5318 13.5147 28.3287 13.3978 28.1953 14.5553C28.0973 15.4061 27.6597 16.2012 26.7743 17.2897C23.9495 20.7623 22.2396 18.8698 22.8343 16.9399C23.5033 14.7688 19.7494 21.1647 18.9001 18.2508C18.8369 18.034 18.833 17.7598 18.8766 17.454C18.6245 17.7361 18.2801 18.0062 17.8171 18.2132C17.4011 18.3993 15.568 21.4425 13.2889 22.1623C11.604 22.6944 11.3014 21.3801 12.6879 20.2697C15.0136 18.4071 15.9517 19.0648 17.1766 16.6342C17.7225 15.551 17.9756 14.8261 17.1693 15.0765C13.988 16.0642 12.688 18.7387 11.9698 18.6454C10.9368 18.5111 11.6866 17.3336 11.9346 16.7538C12.0604 16.4596 12.2109 16.1185 12.3833 15.738ZM17.5953 8.27864C14.506 13.6336 14.8742 13.1593 14.8507 13.3811C16.2155 12.3559 22.2143 6.57931 23.238 2.4C23.6049 0.902205 21.5595 2.41827 19.73 4.96861C18.8118 6.24874 18.2119 7.23862 17.5953 8.27864ZM13.5965 20.5179C13.3964 20.6786 12.907 20.9451 13.0734 21.0969C13.3693 21.3668 15.5676 19.1705 14.3694 19.9536C14.3053 19.9954 14.3227 19.9952 13.5965 20.5179ZM4.12567 26.4517C4.04767 26.7066 3.1371 29.6818 3.36697 29.6963C3.5137 29.7056 6.92549 25.4327 7.47122 19.2932C7.55133 18.3921 7.62627 18.3441 7.48193 18.2889C7.29873 18.2188 7.3376 18.3689 6.06404 21.2988C5.5371 22.511 5.31837 22.955 4.12567 26.4517ZM13.9777 6.38487C12.5148 8.53751 12.6307 8.59912 11.2286 10.7961C8.34672 15.3116 17.5008 3.23522 16.27 3.34658C16.0996 3.36199 14.1526 6.13565 13.9777 6.38487Z" fill="#0B0909"/>
</g>
<defs>
<clipPath id="clip0_262_44964">
<rect width="26.2055" height="30.7579" fill="white" transform="translate(2.01172 0.621094)"/>
</clipPath>
</defs>
</svg>
